<?xml version="1.0" encoding="UTF-8" standalone="no"?>
<!-- Created with Inkscape (http://www.inkscape.org/) -->

<svg
   xmlns:dc="http://purl.org/dc/elements/1.1/"
   xmlns:cc="http://creativecommons.org/ns#"
   xmlns:rdf="http://www.w3.org/1999/02/22-rdf-syntax-ns#"
   xmlns:svg="http://www.w3.org/2000/svg"
   xmlns="http://www.w3.org/2000/svg"
   xmlns:xlink="http://www.w3.org/1999/xlink"
   xmlns:sodipodi="http://sodipodi.sourceforge.net/DTD/sodipodi-0.dtd"
   xmlns:inkscape="http://www.inkscape.org/namespaces/inkscape"
   width="310"
   height="280"
   id="svg2"
   sodipodi:version="0.32"
   inkscape:version="0.47pre4 r22446"
   sodipodi:docname="trilateration-with-3-satellites.svg"
   inkscape:output_extension="org.inkscape.output.svg.inkscape"
   version="1.1"
   inkscape:export-filename="/home/javier/Escritorio/CursoGPS-FCE/images/trilateration-with-3-satellites.png"
   inkscape:export-xdpi="100"
   inkscape:export-ydpi="100">
  <title
     id="title2965">GPS Trilateration. 3 satellites.</title>
  <defs
     id="defs4">
    <marker
       inkscape:stockid="Arrow2Lstart"
       orient="auto"
       refY="0"
       refX="0"
       id="Arrow2Lstart"
       style="overflow:visible">
      <path
         id="path3739"
         style="font-size:12px;fill-rule:evenodd;stroke-width:0.625;stroke-linejoin:round"
         d="M 8.7185878,4.0337352 -2.2072895,0.01601326 8.7185884,-4.0017078 c -1.7454984,2.3720609 -1.7354408,5.6174519 -6e-7,8.035443 z"
         transform="matrix(1.1,0,0,1.1,1.1,0)" />
    </marker>
    <marker
       inkscape:stockid="Arrow2Lend"
       orient="auto"
       refY="0"
       refX="0"
       id="Arrow2Lend"
       style="overflow:visible">
      <path
         id="path3742"
         style="font-size:12px;fill-rule:evenodd;stroke-width:0.625;stroke-linejoin:round"
         d="M 8.7185878,4.0337352 -2.2072895,0.01601326 8.7185884,-4.0017078 c -1.7454984,2.3720609 -1.7354408,5.6174519 -6e-7,8.035443 z"
         transform="matrix(-1.1,0,0,-1.1,-1.1,0)" />
    </marker>
    <inkscape:perspective
       sodipodi:type="inkscape:persp3d"
       inkscape:vp_x="0 : 526.18109 : 1"
       inkscape:vp_y="6.1230318e-14 : 1000 : 0"
       inkscape:vp_z="744.09448 : 526.18109 : 1"
       inkscape:persp3d-origin="372.04724 : 350.78739 : 1"
       id="perspective10" />
    <inkscape:perspective
       id="perspective2875"
       inkscape:persp3d-origin="0.5 : 0.33333333 : 1"
       inkscape:vp_z="1 : 0.5 : 1"
       inkscape:vp_y="0 : 1000 : 0"
       inkscape:vp_x="0 : 0.5 : 1"
       sodipodi:type="inkscape:persp3d" />
    <linearGradient
       id="linearGradient3701">
      <stop
         style="stop-color:#ffad09;stop-opacity:1;"
         offset="0"
         id="stop3703" />
      <stop
         style="stop-color:#ffff22;stop-opacity:1;"
         offset="1"
         id="stop3705" />
    </linearGradient>
    <linearGradient
       y2="218.52069"
       x2="568.64191"
       y1="218.52069"
       x1="548.83215"
       gradientTransform="translate(-494.3434,435.65364)"
       gradientUnits="userSpaceOnUse"
       id="linearGradient2908"
       xlink:href="#linearGradient3701"
       inkscape:collect="always" />
    <linearGradient
       id="linearGradient2884">
      <stop
         style="stop-color:#ffad09;stop-opacity:1;"
         offset="0"
         id="stop2886" />
      <stop
         style="stop-color:#ffff22;stop-opacity:1;"
         offset="1"
         id="stop2888" />
    </linearGradient>
    <linearGradient
       inkscape:collect="always"
       xlink:href="#linearGradient3701"
       id="linearGradient2890"
       gradientUnits="userSpaceOnUse"
       gradientTransform="matrix(0.45912508,0,0,0.45912508,199.35633,737.26129)"
       x1="548.83215"
       y1="218.52069"
       x2="568.64191"
       y2="218.52069" />
    <linearGradient
       inkscape:collect="always"
       xlink:href="#linearGradient3701"
       id="linearGradient2892"
       gradientUnits="userSpaceOnUse"
       gradientTransform="matrix(0.45912508,0,0,0.45912508,199.35633,737.26129)"
       x1="507.95316"
       y1="235.81123"
       x2="525.93079"
       y2="235.81123" />
    <linearGradient
       inkscape:collect="always"
       xlink:href="#linearGradient3701"
       id="linearGradient2910"
       gradientUnits="userSpaceOnUse"
       gradientTransform="matrix(0.45912508,0,0,0.45912508,199.35633,737.26129)"
       x1="548.83215"
       y1="218.52069"
       x2="568.64191"
       y2="218.52069" />
    <linearGradient
       inkscape:collect="always"
       xlink:href="#linearGradient3701"
       id="linearGradient2912"
       gradientUnits="userSpaceOnUse"
       gradientTransform="matrix(0.45912508,0,0,0.45912508,199.35633,737.26129)"
       x1="507.95316"
       y1="235.81123"
       x2="525.93079"
       y2="235.81123" />
    <linearGradient
       inkscape:collect="always"
       xlink:href="#linearGradient3701"
       id="linearGradient2930"
       gradientUnits="userSpaceOnUse"
       gradientTransform="matrix(0.45912508,0,0,0.45912508,199.35633,737.26129)"
       x1="548.83215"
       y1="218.52069"
       x2="568.64191"
       y2="218.52069" />
    <linearGradient
       inkscape:collect="always"
       xlink:href="#linearGradient3701"
       id="linearGradient2932"
       gradientUnits="userSpaceOnUse"
       gradientTransform="matrix(0.45912508,0,0,0.45912508,199.35633,737.26129)"
       x1="507.95316"
       y1="235.81123"
       x2="525.93079"
       y2="235.81123" />
  </defs>
  <sodipodi:namedview
     id="base"
     pagecolor="#ffffff"
     bordercolor="#666666"
     borderopacity="1.0"
     inkscape:pageopacity="0.0"
     inkscape:pageshadow="2"
     inkscape:zoom="1.0625088"
     inkscape:cx="123.06174"
     inkscape:cy="147.699"
     inkscape:document-units="px"
     inkscape:current-layer="layer1"
     showgrid="false"
     showguides="true"
     inkscape:guide-bbox="true"
     inkscape:window-width="1440"
     inkscape:window-height="852"
     inkscape:window-x="0"
     inkscape:window-y="24"
     inkscape:window-maximized="1" />
  <metadata
     id="metadata7">
    <rdf:RDF>
      <cc:Work
         rdf:about="">
        <dc:format>image/svg+xml</dc:format>
        <dc:type
           rdf:resource="http://purl.org/dc/dcmitype/StillImage" />
        <dc:title>GPS Trilateration. 3 satellites.</dc:title>
        <dc:creator>
          <cc:Agent>
            <dc:title>Javier Sánchez Portero</dc:title>
          </cc:Agent>
        </dc:creator>
        <dc:date>2010-4-8</dc:date>
        <dc:subject>
          <rdf:Bag>
            <rdf:li>GPS</rdf:li>
          </rdf:Bag>
        </dc:subject>
        <dc:description>Three circles intersect in a point only with the correct distances.</dc:description>
        <cc:license
           rdf:resource="http://creativecommons.org/licenses/by-sa/3.0/" />
      </cc:Work>
      <cc:License
         rdf:about="http://creativecommons.org/licenses/by-sa/3.0/">
        <cc:permits
           rdf:resource="http://creativecommons.org/ns#Reproduction" />
        <cc:permits
           rdf:resource="http://creativecommons.org/ns#Distribution" />
        <cc:requires
           rdf:resource="http://creativecommons.org/ns#Notice" />
        <cc:requires
           rdf:resource="http://creativecommons.org/ns#Attribution" />
        <cc:permits
           rdf:resource="http://creativecommons.org/ns#DerivativeWorks" />
        <cc:requires
           rdf:resource="http://creativecommons.org/ns#ShareAlike" />
      </cc:License>
    </rdf:RDF>
  </metadata>
  <g
     inkscape:label="Capa 1"
     inkscape:groupmode="layer"
     id="layer1"
     transform="translate(0,-772.3622)">
    <path
       transform="matrix(1.5231957,0,0,1.5231957,-468.0507,276.75242)"
       sodipodi:open="true"
       sodipodi:end="8.0000125"
       sodipodi:start="1.7271671"
       d="m 361.22741,443.5774 c -30.08924,-4.74381 -50.63577,-32.98157 -45.89196,-63.07081 4.7438,-30.08924 32.98156,-50.63578 63.0708,-45.89197 30.08924,4.74381 50.63578,32.98157 45.89197,63.07081 -4.70916,29.86948 -32.59045,50.37793 -62.50703,45.97787"
       sodipodi:ry="55.154327"
       sodipodi:rx="55.154327"
       sodipodi:cy="389.09601"
       sodipodi:cx="369.81683"
       id="path3220"
       style="fill:none;stroke:#000000;stroke-width:0.94432104;stroke-linecap:butt;stroke-linejoin:miter;stroke-miterlimit:4;stroke-opacity:1;stroke-dasharray:none;stroke-dashoffset:0"
       sodipodi:type="arc"
       inkscape:export-filename="/media/USBHD/cep/g6660.png"
       inkscape:export-xdpi="64"
       inkscape:export-ydpi="64" />
    <path
       transform="matrix(0.6199813,0,0,0.6199813,-163.20357,595.01219)"
       sodipodi:open="true"
       sodipodi:end="8.0000125"
       sodipodi:start="1.7271671"
       d="m 611.04496,560.19791 c -64.03607,-10.0958 -107.76331,-70.19155 -97.66752,-134.22762 10.09579,-64.03608 70.19155,-107.76332 134.22762,-97.66752 64.03608,10.09579 107.76331,70.19154 97.66752,134.22761 -10.02205,63.56838 -69.35917,107.21458 -133.02777,97.85034"
       sodipodi:ry="117.37972"
       sodipodi:rx="117.37972"
       sodipodi:cy="444.25034"
       sodipodi:cx="629.32501"
       id="path3222"
       style="fill:none;stroke:#000000;stroke-width:2.3200469;stroke-linecap:butt;stroke-linejoin:miter;stroke-miterlimit:4;stroke-opacity:1;stroke-dasharray:none;stroke-dashoffset:0"
       sodipodi:type="arc"
       inkscape:export-filename="/media/USBHD/cep/g6660.png"
       inkscape:export-xdpi="64"
       inkscape:export-ydpi="64" />
    <path
       sodipodi:type="arc"
       style="fill:none;stroke:#000000;stroke-width:2.3200469;stroke-linecap:butt;stroke-linejoin:miter;stroke-miterlimit:4;stroke-opacity:1;stroke-dasharray:none;stroke-dashoffset:0"
       id="path3232"
       sodipodi:cx="629.32501"
       sodipodi:cy="444.25034"
       sodipodi:rx="117.37972"
       sodipodi:ry="117.37972"
       d="m 611.04496,560.19791 c -64.03607,-10.0958 -107.76331,-70.19155 -97.66752,-134.22762 10.09579,-64.03608 70.19155,-107.76332 134.22762,-97.66752 64.03608,10.09579 107.76331,70.19154 97.66752,134.22761 -10.02205,63.56838 -69.35917,107.21458 -133.02777,97.85034"
       sodipodi:start="1.7271671"
       sodipodi:end="8.0000125"
       sodipodi:open="true"
       transform="matrix(0.6199813,0,0,0.6199813,-223.20357,695.01219)"
       inkscape:export-filename="/media/USBHD/cep/g6660.png"
       inkscape:export-xdpi="64"
       inkscape:export-ydpi="64" />
    <g
       id="g2881"
       transform="translate(-348,28)">
      <path
         style="fill:url(#linearGradient2890);fill-opacity:1;stroke:none"
         d="m 451.33895,836.03872 0.47315,6.09847 8.62199,-1.9452 -0.0526,-7.14994 -4.36356,1.05146 -4.679,1.94521 z"
         id="path3749" />
      <path
         style="fill:#dfdaae;fill-opacity:1;stroke:none"
         d="m 442.03352,839.71882 1.78748,6.72936 6.25619,-2.20808 -1.47204,-5.8356 -1.47204,-0.84117 -1.10404,0.21029 -3.99555,1.9452 z"
         id="path3751" />
      <path
         style="fill:url(#linearGradient2892);fill-opacity:1;stroke:none"
         d="m 432.57036,843.45151 0.36802,5.4676 4.20584,-0.94632 3.68012,-1.20918 -0.36801,-4.62642 -1.68234,0.15771 -2.89152,0.68346 -3.31211,0.47315 z"
         id="path3753" />
      <g
         transform="matrix(0.45912508,0,0,0.45912508,419.73637,601.68456)"
         id="g3755"
         inkscape:export-filename="/media/USBHD/cep/g6659.png"
         inkscape:export-xdpi="64.860001"
         inkscape:export-ydpi="64.860001">
        <path
           style="fill:#000000;fill-opacity:1;stroke:#000000;stroke-width:0.15961137;stroke-linecap:square;stroke-linejoin:round;stroke-miterlimit:4;stroke-opacity:1;stroke-dasharray:none;stroke-dashoffset:0"
           id="path3757"
           d="m 49.72758,518.27672 c -0.0247,0.52909 -0.02592,1.05151 0.06972,1.57313 0.111131,0.4916 0.197254,0.99093 0.340899,1.47423 0.180768,0.60001 0.32466,1.20961 0.474674,1.81774 0.17698,0.53658 0.326338,1.10082 0.599449,1.59854 0.188545,0.29594 0.331098,0.61807 0.502665,0.92325 0.163171,0.27588 0.208368,0.59336 0.320921,0.88995 0.135102,0.36618 0.252788,0.7373 0.334465,1.11911 0.03287,0.3965 0.167863,0.76813 0.273502,1.14846 0.113127,0.40918 0.193251,0.8244 0.248262,1.24519 0.0847,0.34964 0.148139,0.70186 0.185202,1.05971 0.0516,0.35381 -0.0086,0.71776 0.06056,1.06788 0.112944,0.2514 0.413106,0.23753 0.636901,0.1527 0.0909,-0.05 0.203956,-0.0318 0.296574,-0.0744 0.04736,-0.0217 0.08089,-0.0662 0.125181,-0.0937 0.152879,-0.0948 0.329231,-0.15423 0.48907,-0.23665 0.418077,-0.14813 0.855627,-0.24181 1.291909,-0.3211 0.419021,-0.0943 0.812755,-0.25731 1.234367,-0.34086 0.417861,-0.11849 0.832696,-0.26642 1.22401,-0.45866 0.390217,-0.16933 0.777531,-0.34323 1.16671,-0.51463 0.443236,-0.20535 0.895883,-0.38962 1.336019,-0.60084 0.355517,-0.133 0.688691,-0.31398 1.049611,-0.43234 0.406639,-0.15416 0.836755,-0.20929 1.256807,-0.31014 0.07232,-0.0162 0.146439,-0.0259 0.216973,-0.0486 0.149442,-0.0483 0.287525,-0.127 0.435188,-0.18044 0.245805,-0.089 0.497868,-0.16458 0.749725,-0.23395 0.501829,-0.12406 1.003483,-0.24769 1.50536,-0.3715 0.122876,-0.0229 0.33532,-0.0526 0.452848,-0.11029 0.05936,-0.0291 0.21819,-0.14876 0.16032,-0.11678 -3.197739,1.76675 -2.082309,1.57625 -1.703913,0.77777 0.145603,-0.55929 0.129258,-1.1466 0.127995,-1.7205 -0.06203,-0.48463 -0.251551,-0.94082 -0.438812,-1.38846 -0.176554,-0.4641 -0.358867,-0.9241 -0.467856,-1.40948 -0.0667,-0.44418 -0.2436,-0.85467 -0.403371,-1.27095 -0.112038,-0.39734 -0.280225,-0.76919 -0.423845,-1.15443 -0.207179,-0.59563 -0.341093,-1.21386 -0.501317,-1.8233 -0.179711,-0.58336 -0.288882,-1.18997 -0.475299,-1.77043 -0.16592,-0.44849 -0.379844,-0.87558 -0.531796,-1.32941 -0.179354,-0.30603 -0.314706,-0.63039 -0.451723,-0.95664 -0.1686,-0.24159 -0.360632,-0.4716 -0.6058,-0.6371 -0.239604,-0.27812 -0.567476,-0.41018 -0.907582,-0.52279 -0.422499,-0.12044 -0.86461,-0.13403 -1.300885,-0.14647 -0.495421,-0.0168 -0.991125,-0.0253 -1.46617,0.12882 -0.487317,0.13742 -0.930721,0.38704 -1.378767,0.61616 -0.390214,0.19374 -0.802882,0.32538 -1.174014,0.5573 -0.372003,0.17035 -0.730736,0.3702 -1.115064,0.51244 -0.150946,0.0808 -0.290424,0.18356 -0.451006,0.2461 -0.06128,0.0239 -0.128931,0.0305 -0.188381,0.0587 -0.115387,0.0546 -0.214555,0.13847 -0.324296,0.20367 4.3018,-2.50016 0.216809,-0.0788 -1.144621,0.63056 -0.396551,0.14899 -0.05841,0.0138 -0.421868,0.18087 -0.0615,0.0283 -0.245133,0.11401 -0.186629,0.08 0.625994,-0.36409 1.257811,-0.71812 1.890276,-1.07085 0.05571,-0.0311 -0.104484,0.0735 -0.159583,0.10563 -0.732369,0.42732 -1.468359,0.8484 -2.20254,1.27261 -0.395801,0.12527 -0.795049,0.24117 -1.179627,0.40232 -0.0723,0.033 -0.145777,0.0635 -0.216886,0.099 -0.07283,0.0363 -0.143128,0.0776 -0.214692,0.11634 -0.07782,0.0337 -0.306556,0.1441 -0.233444,0.10113 3.288157,-1.93255 2.133551,-1.2704 1.472763,-0.80098 -0.0538,0.0401 -0.10761,0.0802 -0.161417,0.12026 l -2.218478,0.8715 c 0.05603,-0.0353 0.112068,-0.0706 0.168101,-0.10594 0.948538,-0.82414 2.130989,-1.36016 3.275388,-1.87043 0.389107,-0.14142 0.794511,-0.24614 1.164946,-0.43158 -0.625528,0.36385 -1.249862,0.72976 -1.876587,1.09155 -0.05477,0.0316 0.106036,-0.0691 0.160631,-0.10098 0.732163,-0.42815 1.46325,-0.85821 2.199555,-1.2792 0.188046,-0.10752 0.406428,-0.1593 0.592458,-0.27168 0.20692,-0.11428 0.413906,-0.22814 0.622414,-0.3395 0.06194,-0.0331 0.246327,-0.1349 0.185788,-0.0993 -0.11315,0.0665 -5.416799,3.15584 0.337864,-0.20219 0.319016,-0.17818 0.659278,-0.31907 0.985081,-0.48411 0.369829,-0.1655 0.73664,-0.33928 1.092827,-0.53261 0.388237,-0.19442 0.795325,-0.34556 1.178931,-0.54942 0.450146,-0.2301 0.910646,-0.44908 1.404158,-0.56902 0.500036,-0.0965 1.005631,-0.1044 1.513612,-0.0781 0.453617,0.0234 0.912643,0.0524 1.344943,0.20412 0.354398,0.13627 0.687538,0.29626 0.952267,0.57717 0.264232,0.21057 0.493036,0.46034 0.671648,0.74842 0.135784,0.334 0.275446,0.66338 0.452316,0.97838 0.141013,0.45851 0.361761,0.88157 0.52684,1.33097 0.193211,0.58426 0.276308,1.20512 0.458722,1.79417 0.162123,0.59862 0.312939,1.20248 0.519722,1.7873 0.06906,0.18539 0.170018,0.36096 0.234352,0.54709 0.06858,0.1984 0.08786,0.4161 0.183917,0.60643 0.168369,0.42603 0.346662,0.85007 0.427537,1.30295 0.09042,0.47571 0.260117,0.92533 0.433187,1.37646 0.200052,0.47669 0.414359,0.95487 0.483024,1.4721 -0.0043,0.5958 0.0037,1.19538 -0.08096,1.7865 -0.32397,1.25863 -1.812515,1.62329 -2.955306,1.90134 -0.498259,0.12411 -0.999328,0.23696 -1.49378,0.37607 -0.473591,0.15032 -0.931965,0.35069 -1.418618,0.45474 -0.421661,0.0853 -0.838056,0.18652 -1.241105,0.33999 -0.34559,0.14507 -0.689559,0.29372 -1.034133,0.44108 -0.449774,0.19255 -0.888534,0.40851 -1.338258,0.6013 -0.387294,0.17695 -0.78129,0.33827 -1.168726,0.51496 -0.410514,0.16321 -0.819314,0.33517 -1.254261,0.42336 -0.412647,0.10551 -0.812379,0.25897 -1.233731,0.3319 -0.428307,0.0908 -0.864291,0.18174 -1.259742,0.37568 -0.312032,0.14702 -0.609942,0.32114 -0.960915,0.35599 -0.358597,0.001 -0.674628,-0.1042 -0.825599,-0.46031 -0.09311,-0.35732 -0.03552,-0.73057 -0.075,-1.09688 -0.03016,-0.3575 -0.08954,-0.70887 -0.176554,-1.05712 -0.0456,-0.41188 -0.126039,-0.81427 -0.23482,-1.21381 -0.100777,-0.38681 -0.257359,-0.75874 -0.280564,-1.16147 -0.07161,-0.37116 -0.190106,-0.72752 -0.31675,-1.08312 -0.01218,-0.0309 -0.131252,-0.33154 -0.139827,-0.36073 -0.04971,-0.16921 -0.06271,-0.3485 -0.171658,-0.49767 -0.167063,-0.30894 -0.308181,-0.63246 -0.492648,-0.93241 -0.272829,-0.52189 -0.417218,-1.10637 -0.612941,-1.65985 -0.14311,-0.6037 -0.295511,-1.20544 -0.476843,-1.79887 -0.15945,-0.48804 -0.240866,-0.99951 -0.350058,-1.5008 -0.0279,-0.14477 -0.09072,-0.45065 -0.102494,-0.59535 -0.0271,-0.33284 0.0189,-0.67142 -0.01142,-1.00469 l 2.133838,-1.08724 z" />
        <path
           style="fill:#000000;fill-opacity:1;stroke:#000000;stroke-width:0.15961137;stroke-linecap:square;stroke-linejoin:round;stroke-miterlimit:4;stroke-opacity:1;stroke-dasharray:none;stroke-dashoffset:0"
           id="path3759"
           d="m 66.834646,518.239 c 0.484971,-0.26367 1.012198,-0.43113 1.525652,-0.62838 0.422534,-0.15335 0.86409,-0.29203 1.261294,-0.50545 0.776629,-0.37245 0.76019,-0.36914 -1.747857,1.00651 -0.04664,0.0256 0.111842,-0.0496 0.204008,-0.22897 0.0726,-0.14127 0.08151,-0.25168 0.113092,-0.40899 0.0692,-0.56655 0.07643,-1.13773 0.0171,-1.70494 -0.05582,-0.43641 -0.0868,-0.87434 -0.157071,-1.30872 -0.06743,-0.42473 -0.104708,-0.85309 -0.126244,-1.28233 -0.09202,-0.32822 -0.203226,-0.6482 -0.268487,-0.98374 -0.05978,-0.38307 -0.0952,-0.76741 0.02177,-1.14091 0.180457,-0.35436 0.558675,-0.54545 0.883255,-0.75227 1.060435,-0.83732 2.217037,-1.26551 3.398959,-1.79733 0.495437,-0.14583 0.96886,-0.34659 1.446247,-0.54259 0.868415,-0.33158 1.741187,-0.6488 2.603665,-0.99633 0.838273,-0.36245 1.714755,-0.62086 2.538657,-1.01539 0.58353,-0.27432 1.189747,-0.49535 1.80201,-0.69491 0.398211,-0.0875 0.795021,-0.18769 1.197289,-0.25591 0.06341,-0.008 0.128602,-0.008 0.190238,-0.0254 0.128332,-0.0357 0.245615,-0.10394 0.372156,-0.14552 0.21329,-0.0701 0.431782,-0.11283 0.64665,-0.17791 0.441936,-0.12736 0.897863,-0.20182 1.339256,-0.33041 0.47284,-0.0914 0.933349,-0.23219 1.400565,-0.34626 0.531832,-0.0571 1.024632,-0.26515 1.543439,-0.38074 0.432175,-0.0958 0.849913,-0.24825 1.28089,-0.34564 0.298372,-0.0295 0.688499,-0.16756 0.971851,-5.6e-4 0.05482,0.0323 0.09525,0.0844 0.142879,0.12662 0.232134,0.29634 0.260912,0.6664 0.276275,1.02842 0.01,0.38819 0.003,0.77651 -5.5e-5,1.16473 0.04488,0.61265 0.08544,1.2252 0.114172,1.83886 0.02561,0.5196 0.03957,1.03954 0.04044,1.55974 0.08607,0.61615 0.186418,1.22958 0.253431,1.84834 0.05054,0.45596 0.06616,0.91417 0.07199,1.37248 -0.0014,0.58409 -0.01073,1.16805 -0.0094,1.75217 -0.0089,0.47664 0.05597,0.95546 -0.06651,1.4207 -0.146796,0.39794 -0.196973,0.81353 -0.226018,1.23373 -0.0667,0.42844 0.05715,0.82698 0.157486,1.23752 0.08784,0.38118 0.147449,0.77132 0.112206,1.1621 -0.346,1.12343 -1.790148,1.59936 -2.897532,1.67938 -0.602624,0.0235 -1.204643,-0.005 -1.807228,0.0223 -1.013442,0.0524 -2.029983,0.14645 -3.023417,0.35783 -0.86226,0.22472 -1.705294,0.51344 -2.557406,0.77392 -0.604918,0.21245 -1.248342,0.22518 -1.864435,0.38418 -0.894528,0.2566 -1.796401,0.49176 -2.679155,0.78702 -0.592315,0.2404 -1.162053,0.53553 -1.757735,0.76671 -0.419473,0.12504 -0.859506,0.1356 -1.293802,0.13955 -0.516713,-0.0296 -1.025091,0.0266 -1.537279,0.0816 -0.437916,0.057 -0.851953,0.20505 -1.279866,0.3012 -0.389971,0.17562 -0.570723,0.2257 -0.797141,-0.18444 -0.13511,-0.53121 -0.09983,-1.09148 -0.103518,-1.63572 -0.0021,-0.5099 -0.0024,-1.01981 -0.0039,-1.52972 0.0067,-0.48958 0.0056,-0.97923 0.0044,-1.46885 0.02707,-0.42712 -0.0039,-0.68509 -0.133303,-1.08197 -0.06375,-0.22926 -0.122205,-0.45953 -0.188049,-0.6883 l 2.096201,-1.14285 c 0.06452,0.22606 0.127666,0.4515 0.184123,0.67963 0.05563,0.16645 0.14038,0.34302 0.161926,0.51834 0.02566,0.20879 -0.02448,0.42687 -0.0032,0.63622 -0.0014,0.48903 -0.0029,0.97806 9.4e-4,1.46708 -0.0055,0.51231 -0.01231,1.0246 -0.01439,1.53695 4.47e-4,0.50453 -0.01183,1.01685 0.07807,1.51494 0.02065,0.0384 0.02942,0.0866 0.08358,0.0892 0.178621,0.009 0.349314,-0.15875 0.528315,-0.15894 0.424902,-0.11739 0.854389,-0.21412 1.292447,-0.26939 0.515864,-0.0549 1.031144,-0.0695 1.549876,-0.0676 0.422236,-0.0195 0.849305,-0.0434 1.244542,-0.2092 0.578191,-0.24622 1.149081,-0.5108 1.738567,-0.72965 0.894695,-0.27863 1.798222,-0.52989 2.701268,-0.77976 0.618236,-0.1313 1.252704,-0.18662 1.853875,-0.39449 0.850239,-0.25226 1.687566,-0.55071 2.554357,-0.74284 1.007966,-0.18407 2.030446,-0.28234 3.053418,-0.33542 0.609762,-0.0234 1.221201,-0.007 1.829533,-0.0593 0.14805,-0.0226 0.245051,-0.0294 0.385715,-0.082 0.0521,-0.0195 0.197096,-0.10288 0.149594,-0.0739 -4.022981,2.45099 -2.13511,1.51856 -1.696174,0.94325 0.106529,-0.34545 -0.01009,-0.72733 -0.06218,-1.07627 -0.100547,-0.43271 -0.255536,-0.85191 -0.18473,-1.3032 0.02523,-0.43129 0.03919,-0.86876 0.193668,-1.27781 7.2e-4,-0.002 0.108346,-0.32068 0.109701,-0.33015 0.0487,-0.34011 -0.03029,-0.69871 0.0093,-1.04004 0.0025,-0.58012 -0.0035,-1.1601 -0.0087,-1.74018 -0.0026,-0.45417 -0.0097,-0.90871 -0.04663,-1.36162 -0.05638,-0.62607 -0.147157,-1.24704 -0.274358,-1.86284 -0.0034,-0.52017 -0.002,-1.04045 -0.01893,-1.56042 -0.02406,-0.61425 -0.06473,-1.2275 -0.142579,-1.83755 0.0021,-0.38466 0.0072,-0.76935 0.0029,-1.154 -0.0099,-0.28327 0.003,-0.60519 -0.177448,-0.84069 -0.297129,-0.15839 -0.676777,-0.009 -0.985266,0.0444 -0.422745,0.12189 -0.849119,0.22693 -1.274976,0.33756 -0.511705,0.136 -1.016811,0.29334 -1.540076,0.38169 -0.466199,0.12536 -0.934765,0.23954 -1.404344,0.35131 -0.446529,0.10617 -0.894289,0.20836 -1.335878,0.33403 -0.41009,0.11091 -0.807393,0.26724 -1.227156,0.3368 -0.391044,0.0867 -0.788762,0.14752 -1.169483,0.2747 -0.597428,0.21023 -1.196049,0.41627 -1.765314,0.6974 -0.830161,0.3659 -1.697981,0.63612 -2.531652,0.99475 -0.872396,0.34592 -1.754906,0.66469 -2.62482,1.01657 -0.48196,0.20087 -0.972024,0.37629 -1.4595,0.56244 -0.875567,0.39504 -2.967172,1.35178 0.686187,-0.54541 -0.115847,0.0734 -0.238853,0.13563 -0.351141,0.21435 -0.05362,0.0376 -0.09592,0.0903 -0.151015,0.12566 -0.144431,0.0928 -0.323967,0.13024 -0.430779,0.27963 -0.200945,0.33411 -0.120482,0.64331 -0.0832,1.01387 0.05857,0.34878 0.171072,0.67922 0.280849,1.01451 0.01376,0.42087 0.03924,0.84201 0.108937,1.25789 0.07618,0.43986 0.107514,0.88232 0.156138,1.32606 0.06002,0.58476 0.05893,1.17073 0.01188,1.75705 -0.143877,1.41405 -0.930073,1.3885 -2.56613,2.16403 -0.415971,0.17299 -0.835157,0.33892 -1.262912,0.48079 -0.526469,0.19155 -1.037303,0.41658 -1.555705,0.62771 l 1.896815,-1.46046 z" />
        <path
           d="m 47.673442,527.65334 c -0.423618,0.20002 -0.884144,0.32706 -1.33264,0.47669 -0.369079,0.11634 -0.754773,0.22154 -1.101725,0.38345 -0.678379,0.28254 -0.66402,0.28002 1.526732,-0.76355 0.04074,-0.0194 -0.09769,0.0377 -0.178198,0.1737 -0.06341,0.10717 -0.0712,0.19092 -0.09878,0.31026 -0.06045,0.42979 -0.06676,0.86309 -0.01494,1.29338 0.04876,0.33106 0.07582,0.66328 0.137199,0.99281 0.0589,0.3222 0.09146,0.64715 0.110274,0.97278 0.08038,0.24899 0.177515,0.49173 0.23452,0.74627 0.05222,0.2906 0.08316,0.58216 -0.01901,0.8655 -0.157627,0.26883 -0.487997,0.41378 -0.771513,0.57069 -0.926279,0.63519 -1.936557,0.96002 -2.968954,1.36346 -0.432757,0.11063 -0.846288,0.26292 -1.263281,0.41161 -0.758551,0.25154 -1.520906,0.49219 -2.274272,0.75583 -0.732222,0.27496 -1.497819,0.47099 -2.217489,0.77028 -0.509706,0.2081 -1.03923,0.37578 -1.574035,0.52716 -0.347833,0.0664 -0.694442,0.14239 -1.045819,0.19414 -0.05539,0.006 -0.112332,0.006 -0.16617,0.0192 -0.112097,0.0271 -0.214542,0.0788 -0.325075,0.11039 -0.186306,0.0532 -0.377157,0.0856 -0.564841,0.13497 -0.386027,0.0966 -0.784274,0.15309 -1.169825,0.25064 -0.413021,0.0693 -0.815271,0.17615 -1.223379,0.26268 -0.464549,0.0433 -0.895004,0.20114 -1.348177,0.28883 -0.3775,0.0727 -0.742389,0.18833 -1.118842,0.26221 -0.260626,0.0224 -0.601397,0.12711 -0.848902,4.2e-4 -0.04789,-0.0245 -0.0832,-0.064 -0.124803,-0.0961 -0.202767,-0.2248 -0.227904,-0.50553 -0.241323,-0.78016 -0.0087,-0.29449 -0.0026,-0.58907 4.8e-5,-0.88357 -0.03921,-0.46476 -0.07463,-0.92945 -0.09973,-1.39497 -0.02237,-0.39418 -0.03456,-0.78861 -0.03532,-1.18324 -0.07518,-0.46742 -0.162834,-0.93276 -0.22137,-1.40216 -0.04414,-0.3459 -0.05779,-0.6935 -0.06288,-1.04118 0.0012,-0.44309 0.0094,-0.88609 0.0082,-1.32921 0.0078,-0.36158 -0.04889,-0.72482 0.05809,-1.07775 0.128225,-0.30188 0.172054,-0.61715 0.197424,-0.93591 0.05826,-0.32503 -0.04992,-0.62736 -0.137561,-0.9388 -0.07672,-0.28916 -0.128795,-0.58512 -0.09801,-0.88158 0.302228,-0.85224 1.563675,-1.21328 2.530963,-1.27399 0.526385,-0.0178 1.052242,0.004 1.578594,-0.0169 0.885229,-0.0398 1.773167,-0.1111 2.64092,-0.27145 0.753175,-0.17048 1.489556,-0.3895 2.233867,-0.58711 0.528388,-0.16116 1.090412,-0.17082 1.628564,-0.29144 0.781359,-0.19466 1.569134,-0.37305 2.340212,-0.59703 0.517379,-0.18238 1.015039,-0.40626 1.535361,-0.58164 0.366405,-0.0948 0.750769,-0.10287 1.130122,-0.10586 0.451342,0.0225 0.895405,-0.0202 1.342796,-0.0619 0.382515,-0.0432 0.744172,-0.15556 1.11795,-0.22849 0.340635,-0.13323 0.498519,-0.17122 0.696293,0.13991 0.118015,0.40298 0.0872,0.82801 0.09042,1.24088 0.0019,0.38681 0.0021,0.77363 0.0034,1.16045 -0.0059,0.3714 -0.0049,0.74285 -0.0039,1.11428 -0.02365,0.32402 0.0034,0.51971 0.11644,0.82079 0.05568,0.17392 0.106745,0.3486 0.164259,0.52215 l -1.83101,0.86698 c -0.05635,-0.17149 -0.111513,-0.34252 -0.160828,-0.51558 -0.04859,-0.12627 -0.12262,-0.26022 -0.14144,-0.39321 -0.02242,-0.15839 0.02138,-0.32383 0.0028,-0.48265 0.0013,-0.37097 0.0025,-0.74196 -8.22e-4,-1.11293 0.0048,-0.38864 0.01075,-0.77727 0.01257,-1.16594 -3.9e-4,-0.38274 0.01034,-0.77139 -0.06819,-1.14925 -0.01804,-0.0291 -0.0257,-0.0657 -0.07301,-0.0677 -0.156024,-0.006 -0.305123,0.12043 -0.461478,0.12057 -0.371146,0.0891 -0.746299,0.16244 -1.128938,0.20436 -0.450601,0.0417 -0.900692,0.0527 -1.3538,0.0513 -0.368817,0.0148 -0.741858,0.0329 -1.087094,0.1587 -0.505042,0.18678 -1.003708,0.38749 -1.518619,0.55352 -0.781505,0.21137 -1.570726,0.40198 -2.359527,0.59153 -0.540022,0.0996 -1.094223,0.14157 -1.619339,0.29926 -0.742674,0.19136 -1.474071,0.41777 -2.231202,0.56353 -0.880448,0.13963 -1.773573,0.21418 -2.667127,0.25445 -0.532621,0.0177 -1.066706,0.005 -1.598077,0.045 -0.129321,0.0172 -0.21405,0.0223 -0.336918,0.0622 -0.0455,0.0148 -0.172161,0.0781 -0.130669,0.0561 3.514029,-1.85934 1.864995,-1.15199 1.48159,-0.71555 -0.09305,0.26205 0.0088,0.55176 0.05431,0.81646 0.08783,0.32826 0.223208,0.64627 0.161359,0.98862 -0.02204,0.32718 -0.03424,0.65904 -0.169167,0.96936 -6.28e-4,0.002 -0.09464,0.24327 -0.09582,0.25045 -0.04254,0.25801 0.02646,0.53005 -0.0081,0.78899 -0.0022,0.44007 0.0031,0.88006 0.0076,1.3201 0.0023,0.34454 0.0085,0.68936 0.04073,1.03294 0.04925,0.47494 0.12854,0.94602 0.239649,1.41317 0.003,0.3946 0.0017,0.78929 0.01654,1.18374 0.02102,0.46598 0.05654,0.93119 0.124541,1.39398 -0.0019,0.2918 -0.0063,0.58364 -0.0025,0.87543 0.0086,0.21489 -0.0027,0.45911 0.154999,0.63776 0.259539,0.12015 0.591158,0.007 0.86062,-0.0337 0.369263,-0.0925 0.741695,-0.17215 1.113677,-0.25608 0.446968,-0.10316 0.888173,-0.22252 1.345239,-0.28955 0.40722,-0.0951 0.816507,-0.18172 1.226679,-0.2665 0.390038,-0.0805 0.781152,-0.15807 1.166875,-0.2534 0.358209,-0.0841 0.705248,-0.20274 1.071907,-0.2555 0.341572,-0.0657 0.688974,-0.11191 1.02153,-0.20839 0.521848,-0.15948 1.044736,-0.31578 1.541983,-0.52905 0.725137,-0.27758 1.483166,-0.48257 2.211369,-0.75463 0.762028,-0.26242 1.532892,-0.50424 2.292751,-0.77118 0.420988,-0.15238 0.849054,-0.28545 1.274857,-0.42667 0.764797,-0.29968 2.591792,-1.02547 -0.599376,0.41375 0.101191,-0.0557 0.208635,-0.10288 0.306719,-0.1626 0.04684,-0.0285 0.08379,-0.0685 0.131909,-0.0953 0.126159,-0.0704 0.282982,-0.0988 0.37628,-0.21212 0.175524,-0.25346 0.105239,-0.48803 0.07267,-0.76914 -0.05116,-0.26458 -0.14943,-0.51526 -0.245318,-0.76961 -0.01202,-0.31928 -0.03428,-0.63876 -0.09516,-0.95425 -0.06654,-0.33368 -0.09391,-0.66933 -0.136384,-1.00596 -0.05243,-0.4436 -0.05148,-0.88812 -0.01038,-1.33291 0.125674,-1.07271 0.812409,-1.05333 2.241484,-1.64164 0.363348,-0.13124 0.729503,-0.25712 1.10314,-0.36474 0.459866,-0.14531 0.906074,-0.31602 1.358893,-0.47618 l -1.656848,1.10791 z"
           id="path3761"
           style="fill:#000000;fill-opacity:1;stroke:#000000;stroke-width:0.12992752;stroke-linecap:square;stroke-linejoin:round;stroke-miterlimit:4;stroke-opacity:1;stroke-dasharray:none;stroke-dashoffset:0" />
      </g>
    </g>
    <g
       transform="translate(-220,28)"
       id="g2894">
      <path
         id="path2896"
         d="m 451.33895,836.03872 0.47315,6.09847 8.62199,-1.9452 -0.0526,-7.14994 -4.36356,1.05146 -4.679,1.94521 z"
         style="fill:url(#linearGradient2910);fill-opacity:1;stroke:none" />
      <path
         id="path2898"
         d="m 442.03352,839.71882 1.78748,6.72936 6.25619,-2.20808 -1.47204,-5.8356 -1.47204,-0.84117 -1.10404,0.21029 -3.99555,1.9452 z"
         style="fill:#dfdaae;fill-opacity:1;stroke:none" />
      <path
         id="path2900"
         d="m 432.57036,843.45151 0.36802,5.4676 4.20584,-0.94632 3.68012,-1.20918 -0.36801,-4.62642 -1.68234,0.15771 -2.89152,0.68346 -3.31211,0.47315 z"
         style="fill:url(#linearGradient2912);fill-opacity:1;stroke:none" />
      <g
         inkscape:export-ydpi="64.860001"
         inkscape:export-xdpi="64.860001"
         inkscape:export-filename="/media/USBHD/cep/g6659.png"
         id="g2902"
         transform="matrix(0.45912508,0,0,0.45912508,419.73637,601.68456)">
        <path
           d="m 49.72758,518.27672 c -0.0247,0.52909 -0.02592,1.05151 0.06972,1.57313 0.111131,0.4916 0.197254,0.99093 0.340899,1.47423 0.180768,0.60001 0.32466,1.20961 0.474674,1.81774 0.17698,0.53658 0.326338,1.10082 0.599449,1.59854 0.188545,0.29594 0.331098,0.61807 0.502665,0.92325 0.163171,0.27588 0.208368,0.59336 0.320921,0.88995 0.135102,0.36618 0.252788,0.7373 0.334465,1.11911 0.03287,0.3965 0.167863,0.76813 0.273502,1.14846 0.113127,0.40918 0.193251,0.8244 0.248262,1.24519 0.0847,0.34964 0.148139,0.70186 0.185202,1.05971 0.0516,0.35381 -0.0086,0.71776 0.06056,1.06788 0.112944,0.2514 0.413106,0.23753 0.636901,0.1527 0.0909,-0.05 0.203956,-0.0318 0.296574,-0.0744 0.04736,-0.0217 0.08089,-0.0662 0.125181,-0.0937 0.152879,-0.0948 0.329231,-0.15423 0.48907,-0.23665 0.418077,-0.14813 0.855627,-0.24181 1.291909,-0.3211 0.419021,-0.0943 0.812755,-0.25731 1.234367,-0.34086 0.417861,-0.11849 0.832696,-0.26642 1.22401,-0.45866 0.390217,-0.16933 0.777531,-0.34323 1.16671,-0.51463 0.443236,-0.20535 0.895883,-0.38962 1.336019,-0.60084 0.355517,-0.133 0.688691,-0.31398 1.049611,-0.43234 0.406639,-0.15416 0.836755,-0.20929 1.256807,-0.31014 0.07232,-0.0162 0.146439,-0.0259 0.216973,-0.0486 0.149442,-0.0483 0.287525,-0.127 0.435188,-0.18044 0.245805,-0.089 0.497868,-0.16458 0.749725,-0.23395 0.501829,-0.12406 1.003483,-0.24769 1.50536,-0.3715 0.122876,-0.0229 0.33532,-0.0526 0.452848,-0.11029 0.05936,-0.0291 0.21819,-0.14876 0.16032,-0.11678 -3.197739,1.76675 -2.082309,1.57625 -1.703913,0.77777 0.145603,-0.55929 0.129258,-1.1466 0.127995,-1.7205 -0.06203,-0.48463 -0.251551,-0.94082 -0.438812,-1.38846 -0.176554,-0.4641 -0.358867,-0.9241 -0.467856,-1.40948 -0.0667,-0.44418 -0.2436,-0.85467 -0.403371,-1.27095 -0.112038,-0.39734 -0.280225,-0.76919 -0.423845,-1.15443 -0.207179,-0.59563 -0.341093,-1.21386 -0.501317,-1.8233 -0.179711,-0.58336 -0.288882,-1.18997 -0.475299,-1.77043 -0.16592,-0.44849 -0.379844,-0.87558 -0.531796,-1.32941 -0.179354,-0.30603 -0.314706,-0.63039 -0.451723,-0.95664 -0.1686,-0.24159 -0.360632,-0.4716 -0.6058,-0.6371 -0.239604,-0.27812 -0.567476,-0.41018 -0.907582,-0.52279 -0.422499,-0.12044 -0.86461,-0.13403 -1.300885,-0.14647 -0.495421,-0.0168 -0.991125,-0.0253 -1.46617,0.12882 -0.487317,0.13742 -0.930721,0.38704 -1.378767,0.61616 -0.390214,0.19374 -0.802882,0.32538 -1.174014,0.5573 -0.372003,0.17035 -0.730736,0.3702 -1.115064,0.51244 -0.150946,0.0808 -0.290424,0.18356 -0.451006,0.2461 -0.06128,0.0239 -0.128931,0.0305 -0.188381,0.0587 -0.115387,0.0546 -0.214555,0.13847 -0.324296,0.20367 4.3018,-2.50016 0.216809,-0.0788 -1.144621,0.63056 -0.396551,0.14899 -0.05841,0.0138 -0.421868,0.18087 -0.0615,0.0283 -0.245133,0.11401 -0.186629,0.08 0.625994,-0.36409 1.257811,-0.71812 1.890276,-1.07085 0.05571,-0.0311 -0.104484,0.0735 -0.159583,0.10563 -0.732369,0.42732 -1.468359,0.8484 -2.20254,1.27261 -0.395801,0.12527 -0.795049,0.24117 -1.179627,0.40232 -0.0723,0.033 -0.145777,0.0635 -0.216886,0.099 -0.07283,0.0363 -0.143128,0.0776 -0.214692,0.11634 -0.07782,0.0337 -0.306556,0.1441 -0.233444,0.10113 3.288157,-1.93255 2.133551,-1.2704 1.472763,-0.80098 -0.0538,0.0401 -0.10761,0.0802 -0.161417,0.12026 l -2.218478,0.8715 c 0.05603,-0.0353 0.112068,-0.0706 0.168101,-0.10594 0.948538,-0.82414 2.130989,-1.36016 3.275388,-1.87043 0.389107,-0.14142 0.794511,-0.24614 1.164946,-0.43158 -0.625528,0.36385 -1.249862,0.72976 -1.876587,1.09155 -0.05477,0.0316 0.106036,-0.0691 0.160631,-0.10098 0.732163,-0.42815 1.46325,-0.85821 2.199555,-1.2792 0.188046,-0.10752 0.406428,-0.1593 0.592458,-0.27168 0.20692,-0.11428 0.413906,-0.22814 0.622414,-0.3395 0.06194,-0.0331 0.246327,-0.1349 0.185788,-0.0993 -0.11315,0.0665 -5.416799,3.15584 0.337864,-0.20219 0.319016,-0.17818 0.659278,-0.31907 0.985081,-0.48411 0.369829,-0.1655 0.73664,-0.33928 1.092827,-0.53261 0.388237,-0.19442 0.795325,-0.34556 1.178931,-0.54942 0.450146,-0.2301 0.910646,-0.44908 1.404158,-0.56902 0.500036,-0.0965 1.005631,-0.1044 1.513612,-0.0781 0.453617,0.0234 0.912643,0.0524 1.344943,0.20412 0.354398,0.13627 0.687538,0.29626 0.952267,0.57717 0.264232,0.21057 0.493036,0.46034 0.671648,0.74842 0.135784,0.334 0.275446,0.66338 0.452316,0.97838 0.141013,0.45851 0.361761,0.88157 0.52684,1.33097 0.193211,0.58426 0.276308,1.20512 0.458722,1.79417 0.162123,0.59862 0.312939,1.20248 0.519722,1.7873 0.06906,0.18539 0.170018,0.36096 0.234352,0.54709 0.06858,0.1984 0.08786,0.4161 0.183917,0.60643 0.168369,0.42603 0.346662,0.85007 0.427537,1.30295 0.09042,0.47571 0.260117,0.92533 0.433187,1.37646 0.200052,0.47669 0.414359,0.95487 0.483024,1.4721 -0.0043,0.5958 0.0037,1.19538 -0.08096,1.7865 -0.32397,1.25863 -1.812515,1.62329 -2.955306,1.90134 -0.498259,0.12411 -0.999328,0.23696 -1.49378,0.37607 -0.473591,0.15032 -0.931965,0.35069 -1.418618,0.45474 -0.421661,0.0853 -0.838056,0.18652 -1.241105,0.33999 -0.34559,0.14507 -0.689559,0.29372 -1.034133,0.44108 -0.449774,0.19255 -0.888534,0.40851 -1.338258,0.6013 -0.387294,0.17695 -0.78129,0.33827 -1.168726,0.51496 -0.410514,0.16321 -0.819314,0.33517 -1.254261,0.42336 -0.412647,0.10551 -0.812379,0.25897 -1.233731,0.3319 -0.428307,0.0908 -0.864291,0.18174 -1.259742,0.37568 -0.312032,0.14702 -0.609942,0.32114 -0.960915,0.35599 -0.358597,0.001 -0.674628,-0.1042 -0.825599,-0.46031 -0.09311,-0.35732 -0.03552,-0.73057 -0.075,-1.09688 -0.03016,-0.3575 -0.08954,-0.70887 -0.176554,-1.05712 -0.0456,-0.41188 -0.126039,-0.81427 -0.23482,-1.21381 -0.100777,-0.38681 -0.257359,-0.75874 -0.280564,-1.16147 -0.07161,-0.37116 -0.190106,-0.72752 -0.31675,-1.08312 -0.01218,-0.0309 -0.131252,-0.33154 -0.139827,-0.36073 -0.04971,-0.16921 -0.06271,-0.3485 -0.171658,-0.49767 -0.167063,-0.30894 -0.308181,-0.63246 -0.492648,-0.93241 -0.272829,-0.52189 -0.417218,-1.10637 -0.612941,-1.65985 -0.14311,-0.6037 -0.295511,-1.20544 -0.476843,-1.79887 -0.15945,-0.48804 -0.240866,-0.99951 -0.350058,-1.5008 -0.0279,-0.14477 -0.09072,-0.45065 -0.102494,-0.59535 -0.0271,-0.33284 0.0189,-0.67142 -0.01142,-1.00469 l 2.133838,-1.08724 z"
           id="path2904"
           style="fill:#000000;fill-opacity:1;stroke:#000000;stroke-width:0.15961137;stroke-linecap:square;stroke-linejoin:round;stroke-miterlimit:4;stroke-opacity:1;stroke-dasharray:none;stroke-dashoffset:0" />
        <path
           d="m 66.834646,518.239 c 0.484971,-0.26367 1.012198,-0.43113 1.525652,-0.62838 0.422534,-0.15335 0.86409,-0.29203 1.261294,-0.50545 0.776629,-0.37245 0.76019,-0.36914 -1.747857,1.00651 -0.04664,0.0256 0.111842,-0.0496 0.204008,-0.22897 0.0726,-0.14127 0.08151,-0.25168 0.113092,-0.40899 0.0692,-0.56655 0.07643,-1.13773 0.0171,-1.70494 -0.05582,-0.43641 -0.0868,-0.87434 -0.157071,-1.30872 -0.06743,-0.42473 -0.104708,-0.85309 -0.126244,-1.28233 -0.09202,-0.32822 -0.203226,-0.6482 -0.268487,-0.98374 -0.05978,-0.38307 -0.0952,-0.76741 0.02177,-1.14091 0.180457,-0.35436 0.558675,-0.54545 0.883255,-0.75227 1.060435,-0.83732 2.217037,-1.26551 3.398959,-1.79733 0.495437,-0.14583 0.96886,-0.34659 1.446247,-0.54259 0.868415,-0.33158 1.741187,-0.6488 2.603665,-0.99633 0.838273,-0.36245 1.714755,-0.62086 2.538657,-1.01539 0.58353,-0.27432 1.189747,-0.49535 1.80201,-0.69491 0.398211,-0.0875 0.795021,-0.18769 1.197289,-0.25591 0.06341,-0.008 0.128602,-0.008 0.190238,-0.0254 0.128332,-0.0357 0.245615,-0.10394 0.372156,-0.14552 0.21329,-0.0701 0.431782,-0.11283 0.64665,-0.17791 0.441936,-0.12736 0.897863,-0.20182 1.339256,-0.33041 0.47284,-0.0914 0.933349,-0.23219 1.400565,-0.34626 0.531832,-0.0571 1.024632,-0.26515 1.543439,-0.38074 0.432175,-0.0958 0.849913,-0.24825 1.28089,-0.34564 0.298372,-0.0295 0.688499,-0.16756 0.971851,-5.6e-4 0.05482,0.0323 0.09525,0.0844 0.142879,0.12662 0.232134,0.29634 0.260912,0.6664 0.276275,1.02842 0.01,0.38819 0.003,0.77651 -5.5e-5,1.16473 0.04488,0.61265 0.08544,1.2252 0.114172,1.83886 0.02561,0.5196 0.03957,1.03954 0.04044,1.55974 0.08607,0.61615 0.186418,1.22958 0.253431,1.84834 0.05054,0.45596 0.06616,0.91417 0.07199,1.37248 -0.0014,0.58409 -0.01073,1.16805 -0.0094,1.75217 -0.0089,0.47664 0.05597,0.95546 -0.06651,1.4207 -0.146796,0.39794 -0.196973,0.81353 -0.226018,1.23373 -0.0667,0.42844 0.05715,0.82698 0.157486,1.23752 0.08784,0.38118 0.147449,0.77132 0.112206,1.1621 -0.346,1.12343 -1.790148,1.59936 -2.897532,1.67938 -0.602624,0.0235 -1.204643,-0.005 -1.807228,0.0223 -1.013442,0.0524 -2.029983,0.14645 -3.023417,0.35783 -0.86226,0.22472 -1.705294,0.51344 -2.557406,0.77392 -0.604918,0.21245 -1.248342,0.22518 -1.864435,0.38418 -0.894528,0.2566 -1.796401,0.49176 -2.679155,0.78702 -0.592315,0.2404 -1.162053,0.53553 -1.757735,0.76671 -0.419473,0.12504 -0.859506,0.1356 -1.293802,0.13955 -0.516713,-0.0296 -1.025091,0.0266 -1.537279,0.0816 -0.437916,0.057 -0.851953,0.20505 -1.279866,0.3012 -0.389971,0.17562 -0.570723,0.2257 -0.797141,-0.18444 -0.13511,-0.53121 -0.09983,-1.09148 -0.103518,-1.63572 -0.0021,-0.5099 -0.0024,-1.01981 -0.0039,-1.52972 0.0067,-0.48958 0.0056,-0.97923 0.0044,-1.46885 0.02707,-0.42712 -0.0039,-0.68509 -0.133303,-1.08197 -0.06375,-0.22926 -0.122205,-0.45953 -0.188049,-0.6883 l 2.096201,-1.14285 c 0.06452,0.22606 0.127666,0.4515 0.184123,0.67963 0.05563,0.16645 0.14038,0.34302 0.161926,0.51834 0.02566,0.20879 -0.02448,0.42687 -0.0032,0.63622 -0.0014,0.48903 -0.0029,0.97806 9.4e-4,1.46708 -0.0055,0.51231 -0.01231,1.0246 -0.01439,1.53695 4.47e-4,0.50453 -0.01183,1.01685 0.07807,1.51494 0.02065,0.0384 0.02942,0.0866 0.08358,0.0892 0.178621,0.009 0.349314,-0.15875 0.528315,-0.15894 0.424902,-0.11739 0.854389,-0.21412 1.292447,-0.26939 0.515864,-0.0549 1.031144,-0.0695 1.549876,-0.0676 0.422236,-0.0195 0.849305,-0.0434 1.244542,-0.2092 0.578191,-0.24622 1.149081,-0.5108 1.738567,-0.72965 0.894695,-0.27863 1.798222,-0.52989 2.701268,-0.77976 0.618236,-0.1313 1.252704,-0.18662 1.853875,-0.39449 0.850239,-0.25226 1.687566,-0.55071 2.554357,-0.74284 1.007966,-0.18407 2.030446,-0.28234 3.053418,-0.33542 0.609762,-0.0234 1.221201,-0.007 1.829533,-0.0593 0.14805,-0.0226 0.245051,-0.0294 0.385715,-0.082 0.0521,-0.0195 0.197096,-0.10288 0.149594,-0.0739 -4.022981,2.45099 -2.13511,1.51856 -1.696174,0.94325 0.106529,-0.34545 -0.01009,-0.72733 -0.06218,-1.07627 -0.100547,-0.43271 -0.255536,-0.85191 -0.18473,-1.3032 0.02523,-0.43129 0.03919,-0.86876 0.193668,-1.27781 7.2e-4,-0.002 0.108346,-0.32068 0.109701,-0.33015 0.0487,-0.34011 -0.03029,-0.69871 0.0093,-1.04004 0.0025,-0.58012 -0.0035,-1.1601 -0.0087,-1.74018 -0.0026,-0.45417 -0.0097,-0.90871 -0.04663,-1.36162 -0.05638,-0.62607 -0.147157,-1.24704 -0.274358,-1.86284 -0.0034,-0.52017 -0.002,-1.04045 -0.01893,-1.56042 -0.02406,-0.61425 -0.06473,-1.2275 -0.142579,-1.83755 0.0021,-0.38466 0.0072,-0.76935 0.0029,-1.154 -0.0099,-0.28327 0.003,-0.60519 -0.177448,-0.84069 -0.297129,-0.15839 -0.676777,-0.009 -0.985266,0.0444 -0.422745,0.12189 -0.849119,0.22693 -1.274976,0.33756 -0.511705,0.136 -1.016811,0.29334 -1.540076,0.38169 -0.466199,0.12536 -0.934765,0.23954 -1.404344,0.35131 -0.446529,0.10617 -0.894289,0.20836 -1.335878,0.33403 -0.41009,0.11091 -0.807393,0.26724 -1.227156,0.3368 -0.391044,0.0867 -0.788762,0.14752 -1.169483,0.2747 -0.597428,0.21023 -1.196049,0.41627 -1.765314,0.6974 -0.830161,0.3659 -1.697981,0.63612 -2.531652,0.99475 -0.872396,0.34592 -1.754906,0.66469 -2.62482,1.01657 -0.48196,0.20087 -0.972024,0.37629 -1.4595,0.56244 -0.875567,0.39504 -2.967172,1.35178 0.686187,-0.54541 -0.115847,0.0734 -0.238853,0.13563 -0.351141,0.21435 -0.05362,0.0376 -0.09592,0.0903 -0.151015,0.12566 -0.144431,0.0928 -0.323967,0.13024 -0.430779,0.27963 -0.200945,0.33411 -0.120482,0.64331 -0.0832,1.01387 0.05857,0.34878 0.171072,0.67922 0.280849,1.01451 0.01376,0.42087 0.03924,0.84201 0.108937,1.25789 0.07618,0.43986 0.107514,0.88232 0.156138,1.32606 0.06002,0.58476 0.05893,1.17073 0.01188,1.75705 -0.143877,1.41405 -0.930073,1.3885 -2.56613,2.16403 -0.415971,0.17299 -0.835157,0.33892 -1.262912,0.48079 -0.526469,0.19155 -1.037303,0.41658 -1.555705,0.62771 l 1.896815,-1.46046 z"
           id="path2906"
           style="fill:#000000;fill-opacity:1;stroke:#000000;stroke-width:0.15961137;stroke-linecap:square;stroke-linejoin:round;stroke-miterlimit:4;stroke-opacity:1;stroke-dasharray:none;stroke-dashoffset:0" />
        <path
           style="fill:#000000;fill-opacity:1;stroke:#000000;stroke-width:0.12992752;stroke-linecap:square;stroke-linejoin:round;stroke-miterlimit:4;stroke-opacity:1;stroke-dasharray:none;stroke-dashoffset:0"
           id="path2908"
           d="m 47.673442,527.65334 c -0.423618,0.20002 -0.884144,0.32706 -1.33264,0.47669 -0.369079,0.11634 -0.754773,0.22154 -1.101725,0.38345 -0.678379,0.28254 -0.66402,0.28002 1.526732,-0.76355 0.04074,-0.0194 -0.09769,0.0377 -0.178198,0.1737 -0.06341,0.10717 -0.0712,0.19092 -0.09878,0.31026 -0.06045,0.42979 -0.06676,0.86309 -0.01494,1.29338 0.04876,0.33106 0.07582,0.66328 0.137199,0.99281 0.0589,0.3222 0.09146,0.64715 0.110274,0.97278 0.08038,0.24899 0.177515,0.49173 0.23452,0.74627 0.05222,0.2906 0.08316,0.58216 -0.01901,0.8655 -0.157627,0.26883 -0.487997,0.41378 -0.771513,0.57069 -0.926279,0.63519 -1.936557,0.96002 -2.968954,1.36346 -0.432757,0.11063 -0.846288,0.26292 -1.263281,0.41161 -0.758551,0.25154 -1.520906,0.49219 -2.274272,0.75583 -0.732222,0.27496 -1.497819,0.47099 -2.217489,0.77028 -0.509706,0.2081 -1.03923,0.37578 -1.574035,0.52716 -0.347833,0.0664 -0.694442,0.14239 -1.045819,0.19414 -0.05539,0.006 -0.112332,0.006 -0.16617,0.0192 -0.112097,0.0271 -0.214542,0.0788 -0.325075,0.11039 -0.186306,0.0532 -0.377157,0.0856 -0.564841,0.13497 -0.386027,0.0966 -0.784274,0.15309 -1.169825,0.25064 -0.413021,0.0693 -0.815271,0.17615 -1.223379,0.26268 -0.464549,0.0433 -0.895004,0.20114 -1.348177,0.28883 -0.3775,0.0727 -0.742389,0.18833 -1.118842,0.26221 -0.260626,0.0224 -0.601397,0.12711 -0.848902,4.2e-4 -0.04789,-0.0245 -0.0832,-0.064 -0.124803,-0.0961 -0.202767,-0.2248 -0.227904,-0.50553 -0.241323,-0.78016 -0.0087,-0.29449 -0.0026,-0.58907 4.8e-5,-0.88357 -0.03921,-0.46476 -0.07463,-0.92945 -0.09973,-1.39497 -0.02237,-0.39418 -0.03456,-0.78861 -0.03532,-1.18324 -0.07518,-0.46742 -0.162834,-0.93276 -0.22137,-1.40216 -0.04414,-0.3459 -0.05779,-0.6935 -0.06288,-1.04118 0.0012,-0.44309 0.0094,-0.88609 0.0082,-1.32921 0.0078,-0.36158 -0.04889,-0.72482 0.05809,-1.07775 0.128225,-0.30188 0.172054,-0.61715 0.197424,-0.93591 0.05826,-0.32503 -0.04992,-0.62736 -0.137561,-0.9388 -0.07672,-0.28916 -0.128795,-0.58512 -0.09801,-0.88158 0.302228,-0.85224 1.563675,-1.21328 2.530963,-1.27399 0.526385,-0.0178 1.052242,0.004 1.578594,-0.0169 0.885229,-0.0398 1.773167,-0.1111 2.64092,-0.27145 0.753175,-0.17048 1.489556,-0.3895 2.233867,-0.58711 0.528388,-0.16116 1.090412,-0.17082 1.628564,-0.29144 0.781359,-0.19466 1.569134,-0.37305 2.340212,-0.59703 0.517379,-0.18238 1.015039,-0.40626 1.535361,-0.58164 0.366405,-0.0948 0.750769,-0.10287 1.130122,-0.10586 0.451342,0.0225 0.895405,-0.0202 1.342796,-0.0619 0.382515,-0.0432 0.744172,-0.15556 1.11795,-0.22849 0.340635,-0.13323 0.498519,-0.17122 0.696293,0.13991 0.118015,0.40298 0.0872,0.82801 0.09042,1.24088 0.0019,0.38681 0.0021,0.77363 0.0034,1.16045 -0.0059,0.3714 -0.0049,0.74285 -0.0039,1.11428 -0.02365,0.32402 0.0034,0.51971 0.11644,0.82079 0.05568,0.17392 0.106745,0.3486 0.164259,0.52215 l -1.83101,0.86698 c -0.05635,-0.17149 -0.111513,-0.34252 -0.160828,-0.51558 -0.04859,-0.12627 -0.12262,-0.26022 -0.14144,-0.39321 -0.02242,-0.15839 0.02138,-0.32383 0.0028,-0.48265 0.0013,-0.37097 0.0025,-0.74196 -8.22e-4,-1.11293 0.0048,-0.38864 0.01075,-0.77727 0.01257,-1.16594 -3.9e-4,-0.38274 0.01034,-0.77139 -0.06819,-1.14925 -0.01804,-0.0291 -0.0257,-0.0657 -0.07301,-0.0677 -0.156024,-0.006 -0.305123,0.12043 -0.461478,0.12057 -0.371146,0.0891 -0.746299,0.16244 -1.128938,0.20436 -0.450601,0.0417 -0.900692,0.0527 -1.3538,0.0513 -0.368817,0.0148 -0.741858,0.0329 -1.087094,0.1587 -0.505042,0.18678 -1.003708,0.38749 -1.518619,0.55352 -0.781505,0.21137 -1.570726,0.40198 -2.359527,0.59153 -0.540022,0.0996 -1.094223,0.14157 -1.619339,0.29926 -0.742674,0.19136 -1.474071,0.41777 -2.231202,0.56353 -0.880448,0.13963 -1.773573,0.21418 -2.667127,0.25445 -0.532621,0.0177 -1.066706,0.005 -1.598077,0.045 -0.129321,0.0172 -0.21405,0.0223 -0.336918,0.0622 -0.0455,0.0148 -0.172161,0.0781 -0.130669,0.0561 3.514029,-1.85934 1.864995,-1.15199 1.48159,-0.71555 -0.09305,0.26205 0.0088,0.55176 0.05431,0.81646 0.08783,0.32826 0.223208,0.64627 0.161359,0.98862 -0.02204,0.32718 -0.03424,0.65904 -0.169167,0.96936 -6.28e-4,0.002 -0.09464,0.24327 -0.09582,0.25045 -0.04254,0.25801 0.02646,0.53005 -0.0081,0.78899 -0.0022,0.44007 0.0031,0.88006 0.0076,1.3201 0.0023,0.34454 0.0085,0.68936 0.04073,1.03294 0.04925,0.47494 0.12854,0.94602 0.239649,1.41317 0.003,0.3946 0.0017,0.78929 0.01654,1.18374 0.02102,0.46598 0.05654,0.93119 0.124541,1.39398 -0.0019,0.2918 -0.0063,0.58364 -0.0025,0.87543 0.0086,0.21489 -0.0027,0.45911 0.154999,0.63776 0.259539,0.12015 0.591158,0.007 0.86062,-0.0337 0.369263,-0.0925 0.741695,-0.17215 1.113677,-0.25608 0.446968,-0.10316 0.888173,-0.22252 1.345239,-0.28955 0.40722,-0.0951 0.816507,-0.18172 1.226679,-0.2665 0.390038,-0.0805 0.781152,-0.15807 1.166875,-0.2534 0.358209,-0.0841 0.705248,-0.20274 1.071907,-0.2555 0.341572,-0.0657 0.688974,-0.11191 1.02153,-0.20839 0.521848,-0.15948 1.044736,-0.31578 1.541983,-0.52905 0.725137,-0.27758 1.483166,-0.48257 2.211369,-0.75463 0.762028,-0.26242 1.532892,-0.50424 2.292751,-0.77118 0.420988,-0.15238 0.849054,-0.28545 1.274857,-0.42667 0.764797,-0.29968 2.591792,-1.02547 -0.599376,0.41375 0.101191,-0.0557 0.208635,-0.10288 0.306719,-0.1626 0.04684,-0.0285 0.08379,-0.0685 0.131909,-0.0953 0.126159,-0.0704 0.282982,-0.0988 0.37628,-0.21212 0.175524,-0.25346 0.105239,-0.48803 0.07267,-0.76914 -0.05116,-0.26458 -0.14943,-0.51526 -0.245318,-0.76961 -0.01202,-0.31928 -0.03428,-0.63876 -0.09516,-0.95425 -0.06654,-0.33368 -0.09391,-0.66933 -0.136384,-1.00596 -0.05243,-0.4436 -0.05148,-0.88812 -0.01038,-1.33291 0.125674,-1.07271 0.812409,-1.05333 2.241484,-1.64164 0.363348,-0.13124 0.729503,-0.25712 1.10314,-0.36474 0.459866,-0.14531 0.906074,-0.31602 1.358893,-0.47618 l -1.656848,1.10791 z" />
      </g>
    </g>
    <g
       id="g2914"
       transform="translate(-280,128)">
      <path
         style="fill:url(#linearGradient2930);fill-opacity:1;stroke:none"
         d="m 451.33895,836.03872 0.47315,6.09847 8.62199,-1.9452 -0.0526,-7.14994 -4.36356,1.05146 -4.679,1.94521 z"
         id="path2916" />
      <path
         style="fill:#dfdaae;fill-opacity:1;stroke:none"
         d="m 442.03352,839.71882 1.78748,6.72936 6.25619,-2.20808 -1.47204,-5.8356 -1.47204,-0.84117 -1.10404,0.21029 -3.99555,1.9452 z"
         id="path2918" />
      <path
         style="fill:url(#linearGradient2932);fill-opacity:1;stroke:none"
         d="m 432.57036,843.45151 0.36802,5.4676 4.20584,-0.94632 3.68012,-1.20918 -0.36801,-4.62642 -1.68234,0.15771 -2.89152,0.68346 -3.31211,0.47315 z"
         id="path2920" />
      <g
         transform="matrix(0.45912508,0,0,0.45912508,419.73637,601.68456)"
         id="g2922"
         inkscape:export-filename="/media/USBHD/cep/g6659.png"
         inkscape:export-xdpi="64.860001"
         inkscape:export-ydpi="64.860001">
        <path
           style="fill:#000000;fill-opacity:1;stroke:#000000;stroke-width:0.15961137;stroke-linecap:square;stroke-linejoin:round;stroke-miterlimit:4;stroke-opacity:1;stroke-dasharray:none;stroke-dashoffset:0"
           id="path2924"
           d="m 49.72758,518.27672 c -0.0247,0.52909 -0.02592,1.05151 0.06972,1.57313 0.111131,0.4916 0.197254,0.99093 0.340899,1.47423 0.180768,0.60001 0.32466,1.20961 0.474674,1.81774 0.17698,0.53658 0.326338,1.10082 0.599449,1.59854 0.188545,0.29594 0.331098,0.61807 0.502665,0.92325 0.163171,0.27588 0.208368,0.59336 0.320921,0.88995 0.135102,0.36618 0.252788,0.7373 0.334465,1.11911 0.03287,0.3965 0.167863,0.76813 0.273502,1.14846 0.113127,0.40918 0.193251,0.8244 0.248262,1.24519 0.0847,0.34964 0.148139,0.70186 0.185202,1.05971 0.0516,0.35381 -0.0086,0.71776 0.06056,1.06788 0.112944,0.2514 0.413106,0.23753 0.636901,0.1527 0.0909,-0.05 0.203956,-0.0318 0.296574,-0.0744 0.04736,-0.0217 0.08089,-0.0662 0.125181,-0.0937 0.152879,-0.0948 0.329231,-0.15423 0.48907,-0.23665 0.418077,-0.14813 0.855627,-0.24181 1.291909,-0.3211 0.419021,-0.0943 0.812755,-0.25731 1.234367,-0.34086 0.417861,-0.11849 0.832696,-0.26642 1.22401,-0.45866 0.390217,-0.16933 0.777531,-0.34323 1.16671,-0.51463 0.443236,-0.20535 0.895883,-0.38962 1.336019,-0.60084 0.355517,-0.133 0.688691,-0.31398 1.049611,-0.43234 0.406639,-0.15416 0.836755,-0.20929 1.256807,-0.31014 0.07232,-0.0162 0.146439,-0.0259 0.216973,-0.0486 0.149442,-0.0483 0.287525,-0.127 0.435188,-0.18044 0.245805,-0.089 0.497868,-0.16458 0.749725,-0.23395 0.501829,-0.12406 1.003483,-0.24769 1.50536,-0.3715 0.122876,-0.0229 0.33532,-0.0526 0.452848,-0.11029 0.05936,-0.0291 0.21819,-0.14876 0.16032,-0.11678 -3.197739,1.76675 -2.082309,1.57625 -1.703913,0.77777 0.145603,-0.55929 0.129258,-1.1466 0.127995,-1.7205 -0.06203,-0.48463 -0.251551,-0.94082 -0.438812,-1.38846 -0.176554,-0.4641 -0.358867,-0.9241 -0.467856,-1.40948 -0.0667,-0.44418 -0.2436,-0.85467 -0.403371,-1.27095 -0.112038,-0.39734 -0.280225,-0.76919 -0.423845,-1.15443 -0.207179,-0.59563 -0.341093,-1.21386 -0.501317,-1.8233 -0.179711,-0.58336 -0.288882,-1.18997 -0.475299,-1.77043 -0.16592,-0.44849 -0.379844,-0.87558 -0.531796,-1.32941 -0.179354,-0.30603 -0.314706,-0.63039 -0.451723,-0.95664 -0.1686,-0.24159 -0.360632,-0.4716 -0.6058,-0.6371 -0.239604,-0.27812 -0.567476,-0.41018 -0.907582,-0.52279 -0.422499,-0.12044 -0.86461,-0.13403 -1.300885,-0.14647 -0.495421,-0.0168 -0.991125,-0.0253 -1.46617,0.12882 -0.487317,0.13742 -0.930721,0.38704 -1.378767,0.61616 -0.390214,0.19374 -0.802882,0.32538 -1.174014,0.5573 -0.372003,0.17035 -0.730736,0.3702 -1.115064,0.51244 -0.150946,0.0808 -0.290424,0.18356 -0.451006,0.2461 -0.06128,0.0239 -0.128931,0.0305 -0.188381,0.0587 -0.115387,0.0546 -0.214555,0.13847 -0.324296,0.20367 4.3018,-2.50016 0.216809,-0.0788 -1.144621,0.63056 -0.396551,0.14899 -0.05841,0.0138 -0.421868,0.18087 -0.0615,0.0283 -0.245133,0.11401 -0.186629,0.08 0.625994,-0.36409 1.257811,-0.71812 1.890276,-1.07085 0.05571,-0.0311 -0.104484,0.0735 -0.159583,0.10563 -0.732369,0.42732 -1.468359,0.8484 -2.20254,1.27261 -0.395801,0.12527 -0.795049,0.24117 -1.179627,0.40232 -0.0723,0.033 -0.145777,0.0635 -0.216886,0.099 -0.07283,0.0363 -0.143128,0.0776 -0.214692,0.11634 -0.07782,0.0337 -0.306556,0.1441 -0.233444,0.10113 3.288157,-1.93255 2.133551,-1.2704 1.472763,-0.80098 -0.0538,0.0401 -0.10761,0.0802 -0.161417,0.12026 l -2.218478,0.8715 c 0.05603,-0.0353 0.112068,-0.0706 0.168101,-0.10594 0.948538,-0.82414 2.130989,-1.36016 3.275388,-1.87043 0.389107,-0.14142 0.794511,-0.24614 1.164946,-0.43158 -0.625528,0.36385 -1.249862,0.72976 -1.876587,1.09155 -0.05477,0.0316 0.106036,-0.0691 0.160631,-0.10098 0.732163,-0.42815 1.46325,-0.85821 2.199555,-1.2792 0.188046,-0.10752 0.406428,-0.1593 0.592458,-0.27168 0.20692,-0.11428 0.413906,-0.22814 0.622414,-0.3395 0.06194,-0.0331 0.246327,-0.1349 0.185788,-0.0993 -0.11315,0.0665 -5.416799,3.15584 0.337864,-0.20219 0.319016,-0.17818 0.659278,-0.31907 0.985081,-0.48411 0.369829,-0.1655 0.73664,-0.33928 1.092827,-0.53261 0.388237,-0.19442 0.795325,-0.34556 1.178931,-0.54942 0.450146,-0.2301 0.910646,-0.44908 1.404158,-0.56902 0.500036,-0.0965 1.005631,-0.1044 1.513612,-0.0781 0.453617,0.0234 0.912643,0.0524 1.344943,0.20412 0.354398,0.13627 0.687538,0.29626 0.952267,0.57717 0.264232,0.21057 0.493036,0.46034 0.671648,0.74842 0.135784,0.334 0.275446,0.66338 0.452316,0.97838 0.141013,0.45851 0.361761,0.88157 0.52684,1.33097 0.193211,0.58426 0.276308,1.20512 0.458722,1.79417 0.162123,0.59862 0.312939,1.20248 0.519722,1.7873 0.06906,0.18539 0.170018,0.36096 0.234352,0.54709 0.06858,0.1984 0.08786,0.4161 0.183917,0.60643 0.168369,0.42603 0.346662,0.85007 0.427537,1.30295 0.09042,0.47571 0.260117,0.92533 0.433187,1.37646 0.200052,0.47669 0.414359,0.95487 0.483024,1.4721 -0.0043,0.5958 0.0037,1.19538 -0.08096,1.7865 -0.32397,1.25863 -1.812515,1.62329 -2.955306,1.90134 -0.498259,0.12411 -0.999328,0.23696 -1.49378,0.37607 -0.473591,0.15032 -0.931965,0.35069 -1.418618,0.45474 -0.421661,0.0853 -0.838056,0.18652 -1.241105,0.33999 -0.34559,0.14507 -0.689559,0.29372 -1.034133,0.44108 -0.449774,0.19255 -0.888534,0.40851 -1.338258,0.6013 -0.387294,0.17695 -0.78129,0.33827 -1.168726,0.51496 -0.410514,0.16321 -0.819314,0.33517 -1.254261,0.42336 -0.412647,0.10551 -0.812379,0.25897 -1.233731,0.3319 -0.428307,0.0908 -0.864291,0.18174 -1.259742,0.37568 -0.312032,0.14702 -0.609942,0.32114 -0.960915,0.35599 -0.358597,0.001 -0.674628,-0.1042 -0.825599,-0.46031 -0.09311,-0.35732 -0.03552,-0.73057 -0.075,-1.09688 -0.03016,-0.3575 -0.08954,-0.70887 -0.176554,-1.05712 -0.0456,-0.41188 -0.126039,-0.81427 -0.23482,-1.21381 -0.100777,-0.38681 -0.257359,-0.75874 -0.280564,-1.16147 -0.07161,-0.37116 -0.190106,-0.72752 -0.31675,-1.08312 -0.01218,-0.0309 -0.131252,-0.33154 -0.139827,-0.36073 -0.04971,-0.16921 -0.06271,-0.3485 -0.171658,-0.49767 -0.167063,-0.30894 -0.308181,-0.63246 -0.492648,-0.93241 -0.272829,-0.52189 -0.417218,-1.10637 -0.612941,-1.65985 -0.14311,-0.6037 -0.295511,-1.20544 -0.476843,-1.79887 -0.15945,-0.48804 -0.240866,-0.99951 -0.350058,-1.5008 -0.0279,-0.14477 -0.09072,-0.45065 -0.102494,-0.59535 -0.0271,-0.33284 0.0189,-0.67142 -0.01142,-1.00469 l 2.133838,-1.08724 z" />
        <path
           style="fill:#000000;fill-opacity:1;stroke:#000000;stroke-width:0.15961137;stroke-linecap:square;stroke-linejoin:round;stroke-miterlimit:4;stroke-opacity:1;stroke-dasharray:none;stroke-dashoffset:0"
           id="path2926"
           d="m 66.834646,518.239 c 0.484971,-0.26367 1.012198,-0.43113 1.525652,-0.62838 0.422534,-0.15335 0.86409,-0.29203 1.261294,-0.50545 0.776629,-0.37245 0.76019,-0.36914 -1.747857,1.00651 -0.04664,0.0256 0.111842,-0.0496 0.204008,-0.22897 0.0726,-0.14127 0.08151,-0.25168 0.113092,-0.40899 0.0692,-0.56655 0.07643,-1.13773 0.0171,-1.70494 -0.05582,-0.43641 -0.0868,-0.87434 -0.157071,-1.30872 -0.06743,-0.42473 -0.104708,-0.85309 -0.126244,-1.28233 -0.09202,-0.32822 -0.203226,-0.6482 -0.268487,-0.98374 -0.05978,-0.38307 -0.0952,-0.76741 0.02177,-1.14091 0.180457,-0.35436 0.558675,-0.54545 0.883255,-0.75227 1.060435,-0.83732 2.217037,-1.26551 3.398959,-1.79733 0.495437,-0.14583 0.96886,-0.34659 1.446247,-0.54259 0.868415,-0.33158 1.741187,-0.6488 2.603665,-0.99633 0.838273,-0.36245 1.714755,-0.62086 2.538657,-1.01539 0.58353,-0.27432 1.189747,-0.49535 1.80201,-0.69491 0.398211,-0.0875 0.795021,-0.18769 1.197289,-0.25591 0.06341,-0.008 0.128602,-0.008 0.190238,-0.0254 0.128332,-0.0357 0.245615,-0.10394 0.372156,-0.14552 0.21329,-0.0701 0.431782,-0.11283 0.64665,-0.17791 0.441936,-0.12736 0.897863,-0.20182 1.339256,-0.33041 0.47284,-0.0914 0.933349,-0.23219 1.400565,-0.34626 0.531832,-0.0571 1.024632,-0.26515 1.543439,-0.38074 0.432175,-0.0958 0.849913,-0.24825 1.28089,-0.34564 0.298372,-0.0295 0.688499,-0.16756 0.971851,-5.6e-4 0.05482,0.0323 0.09525,0.0844 0.142879,0.12662 0.232134,0.29634 0.260912,0.6664 0.276275,1.02842 0.01,0.38819 0.003,0.77651 -5.5e-5,1.16473 0.04488,0.61265 0.08544,1.2252 0.114172,1.83886 0.02561,0.5196 0.03957,1.03954 0.04044,1.55974 0.08607,0.61615 0.186418,1.22958 0.253431,1.84834 0.05054,0.45596 0.06616,0.91417 0.07199,1.37248 -0.0014,0.58409 -0.01073,1.16805 -0.0094,1.75217 -0.0089,0.47664 0.05597,0.95546 -0.06651,1.4207 -0.146796,0.39794 -0.196973,0.81353 -0.226018,1.23373 -0.0667,0.42844 0.05715,0.82698 0.157486,1.23752 0.08784,0.38118 0.147449,0.77132 0.112206,1.1621 -0.346,1.12343 -1.790148,1.59936 -2.897532,1.67938 -0.602624,0.0235 -1.204643,-0.005 -1.807228,0.0223 -1.013442,0.0524 -2.029983,0.14645 -3.023417,0.35783 -0.86226,0.22472 -1.705294,0.51344 -2.557406,0.77392 -0.604918,0.21245 -1.248342,0.22518 -1.864435,0.38418 -0.894528,0.2566 -1.796401,0.49176 -2.679155,0.78702 -0.592315,0.2404 -1.162053,0.53553 -1.757735,0.76671 -0.419473,0.12504 -0.859506,0.1356 -1.293802,0.13955 -0.516713,-0.0296 -1.025091,0.0266 -1.537279,0.0816 -0.437916,0.057 -0.851953,0.20505 -1.279866,0.3012 -0.389971,0.17562 -0.570723,0.2257 -0.797141,-0.18444 -0.13511,-0.53121 -0.09983,-1.09148 -0.103518,-1.63572 -0.0021,-0.5099 -0.0024,-1.01981 -0.0039,-1.52972 0.0067,-0.48958 0.0056,-0.97923 0.0044,-1.46885 0.02707,-0.42712 -0.0039,-0.68509 -0.133303,-1.08197 -0.06375,-0.22926 -0.122205,-0.45953 -0.188049,-0.6883 l 2.096201,-1.14285 c 0.06452,0.22606 0.127666,0.4515 0.184123,0.67963 0.05563,0.16645 0.14038,0.34302 0.161926,0.51834 0.02566,0.20879 -0.02448,0.42687 -0.0032,0.63622 -0.0014,0.48903 -0.0029,0.97806 9.4e-4,1.46708 -0.0055,0.51231 -0.01231,1.0246 -0.01439,1.53695 4.47e-4,0.50453 -0.01183,1.01685 0.07807,1.51494 0.02065,0.0384 0.02942,0.0866 0.08358,0.0892 0.178621,0.009 0.349314,-0.15875 0.528315,-0.15894 0.424902,-0.11739 0.854389,-0.21412 1.292447,-0.26939 0.515864,-0.0549 1.031144,-0.0695 1.549876,-0.0676 0.422236,-0.0195 0.849305,-0.0434 1.244542,-0.2092 0.578191,-0.24622 1.149081,-0.5108 1.738567,-0.72965 0.894695,-0.27863 1.798222,-0.52989 2.701268,-0.77976 0.618236,-0.1313 1.252704,-0.18662 1.853875,-0.39449 0.850239,-0.25226 1.687566,-0.55071 2.554357,-0.74284 1.007966,-0.18407 2.030446,-0.28234 3.053418,-0.33542 0.609762,-0.0234 1.221201,-0.007 1.829533,-0.0593 0.14805,-0.0226 0.245051,-0.0294 0.385715,-0.082 0.0521,-0.0195 0.197096,-0.10288 0.149594,-0.0739 -4.022981,2.45099 -2.13511,1.51856 -1.696174,0.94325 0.106529,-0.34545 -0.01009,-0.72733 -0.06218,-1.07627 -0.100547,-0.43271 -0.255536,-0.85191 -0.18473,-1.3032 0.02523,-0.43129 0.03919,-0.86876 0.193668,-1.27781 7.2e-4,-0.002 0.108346,-0.32068 0.109701,-0.33015 0.0487,-0.34011 -0.03029,-0.69871 0.0093,-1.04004 0.0025,-0.58012 -0.0035,-1.1601 -0.0087,-1.74018 -0.0026,-0.45417 -0.0097,-0.90871 -0.04663,-1.36162 -0.05638,-0.62607 -0.147157,-1.24704 -0.274358,-1.86284 -0.0034,-0.52017 -0.002,-1.04045 -0.01893,-1.56042 -0.02406,-0.61425 -0.06473,-1.2275 -0.142579,-1.83755 0.0021,-0.38466 0.0072,-0.76935 0.0029,-1.154 -0.0099,-0.28327 0.003,-0.60519 -0.177448,-0.84069 -0.297129,-0.15839 -0.676777,-0.009 -0.985266,0.0444 -0.422745,0.12189 -0.849119,0.22693 -1.274976,0.33756 -0.511705,0.136 -1.016811,0.29334 -1.540076,0.38169 -0.466199,0.12536 -0.934765,0.23954 -1.404344,0.35131 -0.446529,0.10617 -0.894289,0.20836 -1.335878,0.33403 -0.41009,0.11091 -0.807393,0.26724 -1.227156,0.3368 -0.391044,0.0867 -0.788762,0.14752 -1.169483,0.2747 -0.597428,0.21023 -1.196049,0.41627 -1.765314,0.6974 -0.830161,0.3659 -1.697981,0.63612 -2.531652,0.99475 -0.872396,0.34592 -1.754906,0.66469 -2.62482,1.01657 -0.48196,0.20087 -0.972024,0.37629 -1.4595,0.56244 -0.875567,0.39504 -2.967172,1.35178 0.686187,-0.54541 -0.115847,0.0734 -0.238853,0.13563 -0.351141,0.21435 -0.05362,0.0376 -0.09592,0.0903 -0.151015,0.12566 -0.144431,0.0928 -0.323967,0.13024 -0.430779,0.27963 -0.200945,0.33411 -0.120482,0.64331 -0.0832,1.01387 0.05857,0.34878 0.171072,0.67922 0.280849,1.01451 0.01376,0.42087 0.03924,0.84201 0.108937,1.25789 0.07618,0.43986 0.107514,0.88232 0.156138,1.32606 0.06002,0.58476 0.05893,1.17073 0.01188,1.75705 -0.143877,1.41405 -0.930073,1.3885 -2.56613,2.16403 -0.415971,0.17299 -0.835157,0.33892 -1.262912,0.48079 -0.526469,0.19155 -1.037303,0.41658 -1.555705,0.62771 l 1.896815,-1.46046 z" />
        <path
           d="m 47.673442,527.65334 c -0.423618,0.20002 -0.884144,0.32706 -1.33264,0.47669 -0.369079,0.11634 -0.754773,0.22154 -1.101725,0.38345 -0.678379,0.28254 -0.66402,0.28002 1.526732,-0.76355 0.04074,-0.0194 -0.09769,0.0377 -0.178198,0.1737 -0.06341,0.10717 -0.0712,0.19092 -0.09878,0.31026 -0.06045,0.42979 -0.06676,0.86309 -0.01494,1.29338 0.04876,0.33106 0.07582,0.66328 0.137199,0.99281 0.0589,0.3222 0.09146,0.64715 0.110274,0.97278 0.08038,0.24899 0.177515,0.49173 0.23452,0.74627 0.05222,0.2906 0.08316,0.58216 -0.01901,0.8655 -0.157627,0.26883 -0.487997,0.41378 -0.771513,0.57069 -0.926279,0.63519 -1.936557,0.96002 -2.968954,1.36346 -0.432757,0.11063 -0.846288,0.26292 -1.263281,0.41161 -0.758551,0.25154 -1.520906,0.49219 -2.274272,0.75583 -0.732222,0.27496 -1.497819,0.47099 -2.217489,0.77028 -0.509706,0.2081 -1.03923,0.37578 -1.574035,0.52716 -0.347833,0.0664 -0.694442,0.14239 -1.045819,0.19414 -0.05539,0.006 -0.112332,0.006 -0.16617,0.0192 -0.112097,0.0271 -0.214542,0.0788 -0.325075,0.11039 -0.186306,0.0532 -0.377157,0.0856 -0.564841,0.13497 -0.386027,0.0966 -0.784274,0.15309 -1.169825,0.25064 -0.413021,0.0693 -0.815271,0.17615 -1.223379,0.26268 -0.464549,0.0433 -0.895004,0.20114 -1.348177,0.28883 -0.3775,0.0727 -0.742389,0.18833 -1.118842,0.26221 -0.260626,0.0224 -0.601397,0.12711 -0.848902,4.2e-4 -0.04789,-0.0245 -0.0832,-0.064 -0.124803,-0.0961 -0.202767,-0.2248 -0.227904,-0.50553 -0.241323,-0.78016 -0.0087,-0.29449 -0.0026,-0.58907 4.8e-5,-0.88357 -0.03921,-0.46476 -0.07463,-0.92945 -0.09973,-1.39497 -0.02237,-0.39418 -0.03456,-0.78861 -0.03532,-1.18324 -0.07518,-0.46742 -0.162834,-0.93276 -0.22137,-1.40216 -0.04414,-0.3459 -0.05779,-0.6935 -0.06288,-1.04118 0.0012,-0.44309 0.0094,-0.88609 0.0082,-1.32921 0.0078,-0.36158 -0.04889,-0.72482 0.05809,-1.07775 0.128225,-0.30188 0.172054,-0.61715 0.197424,-0.93591 0.05826,-0.32503 -0.04992,-0.62736 -0.137561,-0.9388 -0.07672,-0.28916 -0.128795,-0.58512 -0.09801,-0.88158 0.302228,-0.85224 1.563675,-1.21328 2.530963,-1.27399 0.526385,-0.0178 1.052242,0.004 1.578594,-0.0169 0.885229,-0.0398 1.773167,-0.1111 2.64092,-0.27145 0.753175,-0.17048 1.489556,-0.3895 2.233867,-0.58711 0.528388,-0.16116 1.090412,-0.17082 1.628564,-0.29144 0.781359,-0.19466 1.569134,-0.37305 2.340212,-0.59703 0.517379,-0.18238 1.015039,-0.40626 1.535361,-0.58164 0.366405,-0.0948 0.750769,-0.10287 1.130122,-0.10586 0.451342,0.0225 0.895405,-0.0202 1.342796,-0.0619 0.382515,-0.0432 0.744172,-0.15556 1.11795,-0.22849 0.340635,-0.13323 0.498519,-0.17122 0.696293,0.13991 0.118015,0.40298 0.0872,0.82801 0.09042,1.24088 0.0019,0.38681 0.0021,0.77363 0.0034,1.16045 -0.0059,0.3714 -0.0049,0.74285 -0.0039,1.11428 -0.02365,0.32402 0.0034,0.51971 0.11644,0.82079 0.05568,0.17392 0.106745,0.3486 0.164259,0.52215 l -1.83101,0.86698 c -0.05635,-0.17149 -0.111513,-0.34252 -0.160828,-0.51558 -0.04859,-0.12627 -0.12262,-0.26022 -0.14144,-0.39321 -0.02242,-0.15839 0.02138,-0.32383 0.0028,-0.48265 0.0013,-0.37097 0.0025,-0.74196 -8.22e-4,-1.11293 0.0048,-0.38864 0.01075,-0.77727 0.01257,-1.16594 -3.9e-4,-0.38274 0.01034,-0.77139 -0.06819,-1.14925 -0.01804,-0.0291 -0.0257,-0.0657 -0.07301,-0.0677 -0.156024,-0.006 -0.305123,0.12043 -0.461478,0.12057 -0.371146,0.0891 -0.746299,0.16244 -1.128938,0.20436 -0.450601,0.0417 -0.900692,0.0527 -1.3538,0.0513 -0.368817,0.0148 -0.741858,0.0329 -1.087094,0.1587 -0.505042,0.18678 -1.003708,0.38749 -1.518619,0.55352 -0.781505,0.21137 -1.570726,0.40198 -2.359527,0.59153 -0.540022,0.0996 -1.094223,0.14157 -1.619339,0.29926 -0.742674,0.19136 -1.474071,0.41777 -2.231202,0.56353 -0.880448,0.13963 -1.773573,0.21418 -2.667127,0.25445 -0.532621,0.0177 -1.066706,0.005 -1.598077,0.045 -0.129321,0.0172 -0.21405,0.0223 -0.336918,0.0622 -0.0455,0.0148 -0.172161,0.0781 -0.130669,0.0561 3.514029,-1.85934 1.864995,-1.15199 1.48159,-0.71555 -0.09305,0.26205 0.0088,0.55176 0.05431,0.81646 0.08783,0.32826 0.223208,0.64627 0.161359,0.98862 -0.02204,0.32718 -0.03424,0.65904 -0.169167,0.96936 -6.28e-4,0.002 -0.09464,0.24327 -0.09582,0.25045 -0.04254,0.25801 0.02646,0.53005 -0.0081,0.78899 -0.0022,0.44007 0.0031,0.88006 0.0076,1.3201 0.0023,0.34454 0.0085,0.68936 0.04073,1.03294 0.04925,0.47494 0.12854,0.94602 0.239649,1.41317 0.003,0.3946 0.0017,0.78929 0.01654,1.18374 0.02102,0.46598 0.05654,0.93119 0.124541,1.39398 -0.0019,0.2918 -0.0063,0.58364 -0.0025,0.87543 0.0086,0.21489 -0.0027,0.45911 0.154999,0.63776 0.259539,0.12015 0.591158,0.007 0.86062,-0.0337 0.369263,-0.0925 0.741695,-0.17215 1.113677,-0.25608 0.446968,-0.10316 0.888173,-0.22252 1.345239,-0.28955 0.40722,-0.0951 0.816507,-0.18172 1.226679,-0.2665 0.390038,-0.0805 0.781152,-0.15807 1.166875,-0.2534 0.358209,-0.0841 0.705248,-0.20274 1.071907,-0.2555 0.341572,-0.0657 0.688974,-0.11191 1.02153,-0.20839 0.521848,-0.15948 1.044736,-0.31578 1.541983,-0.52905 0.725137,-0.27758 1.483166,-0.48257 2.211369,-0.75463 0.762028,-0.26242 1.532892,-0.50424 2.292751,-0.77118 0.420988,-0.15238 0.849054,-0.28545 1.274857,-0.42667 0.764797,-0.29968 2.591792,-1.02547 -0.599376,0.41375 0.101191,-0.0557 0.208635,-0.10288 0.306719,-0.1626 0.04684,-0.0285 0.08379,-0.0685 0.131909,-0.0953 0.126159,-0.0704 0.282982,-0.0988 0.37628,-0.21212 0.175524,-0.25346 0.105239,-0.48803 0.07267,-0.76914 -0.05116,-0.26458 -0.14943,-0.51526 -0.245318,-0.76961 -0.01202,-0.31928 -0.03428,-0.63876 -0.09516,-0.95425 -0.06654,-0.33368 -0.09391,-0.66933 -0.136384,-1.00596 -0.05243,-0.4436 -0.05148,-0.88812 -0.01038,-1.33291 0.125674,-1.07271 0.812409,-1.05333 2.241484,-1.64164 0.363348,-0.13124 0.729503,-0.25712 1.10314,-0.36474 0.459866,-0.14531 0.906074,-0.31602 1.358893,-0.47618 l -1.656848,1.10791 z"
           id="path2928"
           style="fill:#000000;fill-opacity:1;stroke:#000000;stroke-width:0.12992752;stroke-linecap:square;stroke-linejoin:round;stroke-miterlimit:4;stroke-opacity:1;stroke-dasharray:none;stroke-dashoffset:0" />
      </g>
    </g>
  </g>
</svg>
